Coordinates
version=1
nRows=7
nColumns=55
inDegrees=yes

Units are S.I. units (second, meters, Newtons, ...)
If the header above contains a line with 'inDegrees', this indicates whether rotational values are in degrees (yes) or radians (no).

endheader
time	pelvis_tilt	pelvis_list	pelvis_rotation	pelvis_tx	pelvis_ty	pelvis_tz	hip_flexion_r	hip_adduction_r	hip_rotation_r	knee_angle_r	knee_angle_r_beta	ankle_angle_r	subtalar_angle_r	mtp_angle_r	hip_flexion_l	hip_adduction_l	hip_rotation_l	knee_angle_l	knee_angle_l_beta	ankle_angle_l	subtalar_angle_l	mtp_angle_l	lumbar_extension	lumbar_bending	lumbar_rotation	torso_tx	torso_ty	torso_tz	arm_flex_r	arm_add_r	arm_rot_r	shoulder_rx	shoulder_ry	shoulder_rz	elbow_flex_r	pro_sup_r	wrist_flex_r	wrist_dev_r	arm_flex_l	arm_add_l	arm_rot_l	shoulder_lx	shoulder_ly	shoulder_lz	elbow_flex_l	pro_sup_l	wrist_flex_l	wrist_dev_l	neck_extension	neck_bending	neck_rotation	head_tx	head_ty	head_tz
     25.90000000	     14.59652740	      2.49420972	      1.58295278	      0.64558140	      1.03231998	     -0.20270737	     -3.93447999	     -8.27301459	     -8.69512969	     64.53976458	      1.12643139	    -19.03374756	     -2.43047311	      1.26958714	     -1.30947020	      5.05038830	     -3.03635217	     15.83568957	      0.27638492	      4.85141903	     -3.51981276	      1.73299656	    -14.44849925	     -3.29576111	      0.82076362	      0.08657303	      0.00861827	     -0.00921435	     -2.03114221	    -15.00358322	     52.43308062	     -0.02349066	     -0.03865382	     -0.00859195	     16.08887454	     14.57580248	     -1.21786322	    -30.24463940	     -0.47665260	    -13.18203390	     54.23850540	     -0.01297889	     -0.05308820	      0.00971675	     15.56728650	      6.21448900	     -4.09523578	    -16.23924649	     17.94606098	     -1.14918733	     -5.97344273	      0.01417354	      0.02270872	     -0.00342608
     25.91000000	     14.74603404	      2.53746814	      1.79007174	      0.64445817	      1.03446895	     -0.20258580	     -2.87135877	     -8.42534490	     -8.69984467	     64.45219435	      1.12490300	    -18.89346482	     -2.54583189	      1.25017404	     -2.13779235	      4.99162867	     -3.04696563	     15.97292449	      0.27878012	      4.86108118	     -3.48656346	      1.72945549	    -14.46564501	     -3.28440125	      0.71405124	      0.08756603	      0.00724369	     -0.00955903	     -2.11748155	    -14.95758540	     52.45013878	     -0.02726316	     -0.03914455	     -0.00956201	     16.08007264	     14.57562049	     -1.22080330	    -30.22767816	     -0.33645657	    -13.20250954	     54.22719627	     -0.00974758	     -0.05250898	      0.00920570	     15.60377027	      6.21424799	     -4.08810562	    -16.24712017	     17.93693925	     -1.15011463	     -5.96959054	      0.01504329	      0.02259420	     -0.00372818
     25.92000000	     12.34186049	      5.73905509	      1.63353601	      0.64465167	      1.03172838	     -0.19895198	      2.93691436	    -11.52235625	     -7.57156369	     69.55061887	      1.21388730	    -13.34101485	    -10.63472065	      0.86072044	     -2.44031917	      8.25392809	     -2.13745658	     11.81970992	      0.20629285	      6.84049989	      1.69207337	      1.53399291	    -13.03077079	     -6.79042235	     -0.13502463	      0.07904705	      0.01105040	     -0.01713300	     -1.30530822	    -14.08073521	     53.18167018	     -0.02760765	     -0.03957995	     -0.00807810	     15.15156086	     14.33480467	     -1.56730507	    -28.59024174	      1.25284315	    -14.44096301	     54.13259047	     -0.01361144	     -0.05223397	      0.01074941	     17.46233616	      6.16148481	     -3.56993978	    -16.67916957	     17.95823295	     -0.88529096	     -5.50783022	      0.01178278	      0.02286872	     -0.00335502
     25.93000000	     12.55341586	      5.74016389	      1.80203828	      0.64342317	      1.03370334	     -0.19871951	      4.07858363	    -11.64927005	     -7.59364384	     69.32229817	      1.20990235	    -13.24920150	    -10.67143134	      0.85061447	     -3.31602732	      8.15881176	     -2.17986761	     12.01537333	      0.20970783	      6.79054915	      1.69774955	      1.53886877	    -13.04671483	     -6.75069981	     -0.25062621	      0.08055546	      0.01013315	     -0.01730848	     -1.40969006	    -14.04083347	     53.20046137	     -0.03124191	     -0.03999452	     -0.00903510	     15.14555113	     14.33598742	     -1.56883768	    -28.57562666	      1.36330503	    -14.46359445	     54.11949905	     -0.01014674	     -0.05160655	      0.01045502	     17.47927448	      6.16039370	     -3.56584599	    -16.68705746	     17.95258737	     -0.88769010	     -5.50658508	      0.01293342	      0.02224989	     -0.00371388
     25.94000000	     12.79502716	      5.72098894	      1.98145187	      0.64183646	      1.03540969	     -0.19865044	      5.30355683	    -11.80433305	     -7.60922811	     69.09273858	      1.20589578	    -13.13236593	    -10.72365570	      0.83645175	     -4.19457586	      8.04055996	     -2.21984206	     12.19797146	      0.21289476	      6.75286546	      1.70690204	      1.54243722	    -13.11499388	     -6.69903320	     -0.38277325	      0.08257584	      0.00922524	     -0.01718698	     -1.55083862	    -13.99731530	     53.22256311	     -0.03472284	     -0.04045308	     -0.00968848	     15.13530536	     14.33732910	     -1.57045277	    -28.55958303	      1.50237534	    -14.49024927	     54.10391293	     -0.00759352	     -0.05088704	      0.01014803	     17.50529666	      6.16064408	     -3.55992054	    -16.69795080	     17.94203310	     -0.89028188	     -5.50611277	      0.01434639	      0.02227253	     -0.00395270
     25.95000000	     13.05442408	      5.69024696	      2.15020763	      0.64025062	      1.03677309	     -0.19863560	      6.57840477	    -11.97279015	     -7.62525159	     68.85597976	      1.20176356	    -12.99574553	    -10.78790239	      0.81947763	     -5.09025969	      7.90538075	     -2.25774124	     12.37198277	      0.21593183	      6.72597607	      1.71930588	      1.54482113	    -13.19814162	     -6.64131486	     -0.53538891	      0.08470258	      0.00860430	     -0.01696522	     -1.71924384	    -13.94675332	     53.24778181	     -0.03780830	     -0.04066897	     -0.01023542	     15.12401255	     14.33909339	     -1.57182785	    -28.54244514	      1.67998454	    -14.51974074	     54.08509122	     -0.00533034	     -0.05023200	      0.00988112	     17.54138058	      6.16210183	     -3.55212091	    -16.71195966	     17.93063861	     -0.89310552	     -5.50631285	      0.01562005	      0.02244232	     -0.00409602
     25.96000000	     13.31723290	      5.65377217	      2.30991295	      0.63857304	      1.03794171	     -0.19860958	      7.90087869	    -12.15822986	     -7.63889061	     68.59777257	      1.19725699	    -12.83932337	    -10.86316378	      0.80015422	     -6.01219110	      7.74863174	     -2.29569257	     12.53899744	      0.21884679	      6.71068690	      1.73324493	      1.54584438	    -13.29587442	     -6.57976649	     -0.70524509	      0.08685802	      0.00815148	     -0.01668904	     -1.91183273	    -13.88941500	     53.27595420	     -0.04040925	     -0.04073443	     -0.01061390	     15.11239367	     14.34136989	     -1.57282924	    -28.52444118	      1.89398509	    -14.55155885	     54.06329335	     -0.00341452	     -0.04974355	      0.00964764	     17.58693398	      6.16468213	     -3.54260757	    -16.72890862	     17.91777495	     -0.89576999	     -5.50706169	      0.01683447	      0.02270871	     -0.00413004
